<?xml version="1.0" encoding="utf-8" standalone="no"?>
<!DOCTYPE svg PUBLIC "-//W3C//DTD SVG 1.1//EN" "http://www.w3.org/Graphics/SVG/1.1/DTD/svg11-flat-20030114.dtd">
<!-- Created by SVGDeveloper 1.0 -->
<svg width="640" height="480" version="1.1" xmlns="http://www.w3.org/2000/svg" xmlns:xlink="http://www.w3.org/1999/xlink">
	<rect x="96" y="86" width="89" height="114" fill="#99FF99" stroke="#000000" stroke-opacity="1" transform="matrix(1.732,0.001,0,0.887,53.816,11.481)" />
	<rect x="209" y="53.5" width="17" height="49.5" fill="#CC9933" stroke="none" stroke-opacity="0" transform="matrix(1,0,0,1,52.5,38)" />
	<rect x="250.5" y="42" width="59" height="54" fill="#999999" stroke="none" stroke-opacity="0" transform="matrix(1,0,0,1,65,47)" />
	<rect x="310.5" y="42" width="54.5" height="83.5" fill="#99FF66" stroke="#000000" stroke-opacity="1" transform="matrix(1,0,0,1,65,47)" />
	<rect x="310.5" y="42" width="54.5" height="83.5" fill="#99FF66" stroke="none" stroke-opacity="0" transform="matrix(1,0,0,1,-144.5,46)" />
	<rect x="96" y="86" width="89" height="114" fill="#99FFCC" stroke="#000000" stroke-opacity="1" transform="matrix(1.732,0.001,0,0.887,263.316,11.09)" />
	<rect x="310.5" y="42" width="54.5" height="83.5" fill="#99FF66" stroke="#000000" stroke-opacity="1" transform="matrix(1,0,0,1,273,47)" />
	<rect x="313" y="59" width="32.5" height="15" fill="#CC9933" stroke="#FFFFFF" transform="matrix(1,0,0,1,65,47)" />
	<rect x="372.5" y="59.5" width="58.5" height="17.5" fill="#CC9933" stroke="#FFFFFF" transform="matrix(1,0,0,1,65,47)" />
	<rect x="373" y="91" width="59" height="17.5" fill="#CC9933" stroke="#FFFFFF" transform="matrix(1,0,0,1,65,47)" />
	<rect x="452.5" y="60.5" width="60" height="17" fill="#CC9933" stroke="#FFFFFF" transform="matrix(1,0,0,1,65,47)" />
	<rect x="373" y="91" width="59" height="17.5" fill="#CC9933" stroke="#FFFFFF" transform="matrix(1,0,0,1,146,48)" />
	<rect x="209" y="53.5" width="17" height="49.5" fill="#CC9933" stroke="none" stroke-opacity="0" transform="matrix(1,0,0,1,78.5,37.5)" />
	<rect x="209" y="53.5" width="17" height="49.5" fill="#CC9933" stroke="none" stroke-opacity="0" transform="matrix(1,0,0,1,24,38)" />
	<rect x="96" y="86" width="89" height="114" fill="#99FF99" stroke="#000000" stroke-opacity="1" transform="matrix(1.732,0.001,0,0.887,-147.684,11.853)" />
	<polyline points="14.5 161,170 161.5,170 97,219 97.5,220.5 162,373 163,373 97.5,427 98,428.5 162.5,581.5 162.5,582.5 98,635.5 97.5,635.5 211.5,-0.5 211,0.5 15,15.5 14.5" fill="#66FF00" stroke="#FFFFFF" transform="matrix(1,0,0,1,2,75)" />
	<rect x="209" y="53.5" width="17" height="49.5" fill="#CC9933" stroke="none" stroke-opacity="0" transform="matrix(1,0,0,1,-175,46.5)" />
	<rect x="209" y="53.5" width="17" height="49.5" fill="#CC9933" stroke="none" stroke-opacity="0" transform="matrix(1,0,0,1,-144.5,46)" />
	<rect x="209" y="53.5" width="17" height="49.5" fill="#CC9933" stroke="none" stroke-opacity="0" transform="matrix(1,0,0,1,-111.5,47.5)" />
	<rect x="313" y="59" width="32.5" height="15" fill="#CC9933" stroke="#FFFFFF" transform="matrix(1,0,0,1,-137.5,78)" />
	<rect x="313" y="59" width="32.5" height="15" fill="#CC9933" stroke="#FFFFFF" transform="matrix(1,0,0,1,-136.5,46)" />
	<rect x="17" y="210.5" width="124.5" height="74.5" fill="#99FF99" stroke="#000000" transform="matrix(0.729,0,0,1.22,27.977,29.495)" />
	<rect x="17" y="210.5" width="124.5" height="74.5" fill="#99FF99" stroke="#000000" transform="matrix(0.729,0,0,1.22,118.977,29.495)" />
	<rect x="17" y="210.5" width="124.5" height="74.5" fill="#99FF99" stroke="#000000" transform="matrix(0.729,0,0,1.22,209.977,28.495)" />
	<rect x="17" y="210.5" width="124.5" height="74.5" fill="#99FF99" stroke="#000000" transform="matrix(0.729,0,0,1.22,300.977,28.995)" />
	<rect x="17" y="210.5" width="124.5" height="74.5" fill="#99FF99" stroke="#000000" transform="matrix(0.729,0,0,1.22,392.477,28.995)" />
	<rect x="17" y="210.5" width="124.5" height="74.5" fill="#99FF99" stroke="#000000" transform="matrix(0.729,0,0,1.22,482.477,28.995)" />
	<polygon points="514 136,514 135,514 136" fill-rule="evenodd" fill="#99FF99" stroke="#FFFFFF" transform="matrix(1,0,0,1,2,75)" />
	<rect x="440" y="142.5" width="26" height="7.5" fill="#000000" stroke="#000000" transform="matrix(1,0,0,1,74.5,70.5)" />
	<rect x="440" y="142.5" width="26" height="7.5" fill="#000000" stroke="#000000" transform="matrix(1,0,0,1,90,62.5)" />
	<rect x="440" y="142.5" width="26" height="7.5" fill="#000000" stroke="#000000" transform="matrix(1,0,0,1,100.5,56)" />
	<rect x="440" y="142.5" width="26" height="7.5" fill="#000000" stroke="#000000" transform="matrix(1,0,0,1,63,77.5)" />
	<rect x="440" y="142.5" width="26" height="7.5" fill="#000000" stroke="#000000" transform="matrix(1,0,0,1,-106,54)" />
	<rect x="440" y="142.5" width="26" height="7.5" fill="#000000" stroke="#000000" transform="matrix(1,0,0,1,-121,62.5)" />
	<rect x="440" y="142.5" width="26" height="7.5" fill="#000000" stroke="#000000" transform="matrix(1,0,0,1,-133.5,71.5)" />
	<rect x="440" y="142.5" width="26" height="7.5" fill="#000000" stroke="#000000" transform="matrix(1,0,0,1,-146,80.5)" />
	<rect x="440" y="142.5" width="26" height="7.5" fill="#000000" stroke="#000000" transform="matrix(1,0,0,1,-303,53.5)" />
	<rect x="440" y="142.5" width="26" height="7.5" fill="#000000" stroke="#000000" transform="matrix(1,0,0,1,-315,61.5)" />
	<rect x="440" y="142.5" width="26" height="7.5" fill="#000000" stroke="#000000" transform="matrix(1,0,0,1,-324,69.5)" />
	<rect x="440" y="142.5" width="26" height="7.5" fill="#000000" stroke="#000000" transform="matrix(1,0,0,1,-334.5,77.5)" />
	<rect x="440" y="142.5" width="26" height="7.5" fill="#000000" stroke="#000000" transform="matrix(1,0,0,1,-423.5,154)" />
	<rect x="440" y="142.5" width="26" height="7.5" fill="#000000" stroke="#000000" transform="matrix(1,0,0,1,-428.5,161)" />
	<rect x="440" y="142.5" width="26" height="7.5" fill="#000000" stroke="#000000" transform="matrix(1,0,0,1,-433,169)" />
	<rect x="440" y="142.5" width="26" height="7.5" fill="#000000" stroke="#000000" transform="matrix(1,0,0,1,145.5,154.5)" />
	<rect x="440" y="142.5" width="26" height="7.5" fill="#000000" stroke="#000000" transform="matrix(1,0,0,1,151.5,162.5)" />
	<rect x="440" y="142.5" width="26" height="7.5" fill="#000000" stroke="#000000" transform="matrix(1,0,0,1,157,171)" />
	<rect x="440" y="142.5" width="26" height="7.5" fill="#000000" stroke="#000000" transform="matrix(1,0,0,1,163,179.5)" />
	<rect x="440" y="142.5" width="26" height="7.5" fill="#000000" stroke="#000000" transform="matrix(1,0,0,1,-438.5,177.5)" />
	<rect x="313" y="59" width="32.5" height="15" fill="#CC9933" stroke="#FFFFFF" transform="matrix(1,0,0,1,-224,258)" />
	<rect x="313" y="59" width="32.5" height="15" fill="#CC9933" stroke="#FFFFFF" transform="matrix(1,0,0,1,-224,284)" />
	<rect x="313" y="59" width="32.5" height="15" fill="#CC9933" stroke="#FFFFFF" transform="matrix(1,0,0,1,-269.5,257)" />
	<rect x="313" y="59" width="32.5" height="15" fill="#CC9933" stroke="#FFFFFF" transform="matrix(1,0,0,1,-270,285.5)" />
	<rect x="313" y="59" width="32.5" height="15" fill="#CC9933" stroke="#FFFFFF" transform="matrix(1,0,0,1,-84,278)" />
	<rect x="313" y="59" width="32.5" height="15" fill="#CC9933" stroke="#FFFFFF" transform="matrix(1.58,0,0,1.94,-344.32,200.99)" />
	<rect x="313" y="59" width="32.5" height="15" fill="#CC9933" stroke="#FFFFFF" transform="matrix(1.81,0,0,1,-135.49,230.5)" />
	<rect x="313" y="59" width="32.5" height="15" fill="#CC9933" stroke="#FFFFFF" transform="matrix(1.81,0,0,1,-134.99,258)" />
	<rect x="313" y="59" width="32.5" height="15" fill="#CC9933" stroke="#FFFFFF" transform="matrix(1.81,0,0,1,-135.99,286)" />
	<text x="275" y="158.6538" xml:space="preserve" font-family="宋体" font-size="12" fill="#99FF99" stroke="#000000" transform="matrix(1,0,0,1,61.538,28.205)" >C1-403</text>
	<text x="63.46154" y="163.4615" xml:space="preserve" font-family="宋体" font-size="12" fill="#99FF99" stroke="#000000" baseline-shift="baseline" transform="matrix(1,0,0,1,73.076,-64.103)" >C1-401</text>
	<text x="275" y="158.6538" xml:space="preserve" font-family="宋体" font-size="12" fill="#99FF99" stroke="#000000" transform="matrix(1,0,0,1,270.961,-61.09)" >C1-405</text>
	<text x="367.3077" y="258.0128" xml:space="preserve" font-family="宋体" font-size="12" fill="#99FF99" stroke="#000000" baseline-shift="baseline" transform="matrix(1,0,0,1,245.513,25)">
road</text>
	<text x="393.2692" y="257.3718" xml:space="preserve" font-family="宋体" font-size="12" fill="#000000" stroke="none" stroke-opacity="0" baseline-shift="baseline">
</text>
<text x="275" y="158.6538" xml:space="preserve" font-family="宋体" font-size="12" fill="#99FF99" stroke="#000000" transform="matrix(1,0,0,1,-90.577,-60.769)">
C1-402</text>
<text x="275" y="158.6538" xml:space="preserve" font-family="宋体" font-size="12" fill="#99FF99" stroke="#000000" transform="matrix(1,0,0,1,118.718,-59.487)">
C1-404</text>
<text x="275" y="158.6538" xml:space="preserve" font-family="宋体" font-size="12" fill="#99FF99" stroke="#000000" transform="matrix(1,0,0,1,-270.577,-70.577)">
F4</text>
</svg>
